<svg xmlns="http://www.w3.org/2000/svg" width="1600" height="860" viewBox="0 0 1600 860" role="img" aria-labelledby="t d"><title id="t">MyZubster maturity map</title><desc id="d">A visual status map distinguishing development, internal ledger, separate integration boundaries, and experimental tracks.</desc><rect width="1600" height="860" rx="32" fill="#080f1c"/><text x="70" y="78" font-family="Inter,Arial" font-size="44" font-weight="700" fill="#fff">MYZUBSTER // MATURITY MAP</text><text x="70" y="116" font-family="Inter,Arial" font-size="19" fill="#55f2ff">CURRENT DOCUMENTATION POSITIONING · NOT A PRODUCTION CERTIFICATE</text><g font-family="Inter,Arial"><g fill="#102338" stroke="#45eaff" stroke-width="2"><rect x="80" y="180" width="680" height="110" rx="18"/><rect x="840" y="180" width="680" height="110" rx="18"/><rect x="80" y="330" width="680" height="110" rx="18"/><rect x="840" y="330" width="680" height="110" rx="18"/><rect x="80" y="480" width="680" height="110" rx="18"/><rect x="840" y="480" width="680" height="110" rx="18"/></g><g fill="#fff" font-size="24" font-weight="700"><text x="115" y="225">CORE OBSERVATIONS / MAPPING</text><text x="875" y="225">BOUNTY WORKFLOW</text><text x="115" y="375">MYZ REWARD ACCOUNTING</text><text x="875" y="375">IPFS / IPNS SNAPSHOTS</text><text x="115" y="525">GATEWAY / XMR SETTLEMENT</text><text x="875" y="525">AI · ROBOTICS · IoT</text></g><g fill="#a8d4db" font-size="18"><text x="115" y="260">Development / validation</text><text x="875" y="260">Development / validation</text><text x="115" y="410">Internal ledger — not automatic on-chain payment</text><text x="875" y="410">Development / integration</text><text x="115" y="560">Separate boundary — verify independently</text><text x="875" y="560">Prototype / experimental tracks</text></g><g><rect x="610" y="210" width="115" height="42" rx="21" fill="#123f48"/><rect x="1370" y="210" width="115" height="42" rx="21" fill="#123f48"/><rect x="610" y="360" width="115" height="42" rx="21" fill="#3b2448"/><rect x="1370" y="360" width="115" height="42" rx="21" fill="#123f48"/><rect x="610" y="510" width="115" height="42" rx="21" fill="#4a203e"/><rect x="1370" y="510" width="115" height="42" rx="21" fill="#3b2448"/></g><g text-anchor="middle" font-size="15" font-weight="700" fill="#fff"><text x="667" y="237">VALIDATE</text><text x="1427" y="237">VALIDATE</text><text x="667" y="387">INTERNAL</text><text x="1427" y="387">INTEGRATE</text><text x="667" y="537">VERIFY</text><text x="1427" y="537">EXPERIMENT</text></g></g><rect x="150" y="660" width="1300" height="120" rx="20" fill="#170c22" stroke="#ff4de1" stroke-width="3"/><text x="800" y="708" text-anchor="middle" font-family="Inter,Arial" font-size="23" font-weight="700" fill="#ff70e8">STATUS DISCIPLINE</text><text x="800" y="750" text-anchor="middle" font-family="Inter,Arial" font-size="18" fill="#fff">Code + reproducible tests outrank roadmap claims. Historical posts do not convert proposals into released features.</text><text x="800" y="820" text-anchor="middle" font-family="Inter,Arial" font-size="16" fill="#55f2ff">Source: docs/ECOSYSTEM.md · generated as documentation, not real-world evidence.</text></svg>